<svg width="29" height="29" viewBox="0 0 29 29" fill="none" xmlns="http://www.w3.org/2000/svg">
<path d="M9.23917 10.7027L9.98573 11.2626C10.0897 11.1239 10.153 10.9591 10.1686 10.7865C10.1842 10.6139 10.1514 10.4403 10.0738 10.2853C9.99634 10.1303 9.8772 9.99996 9.72978 9.90885C9.58236 9.81774 9.41247 9.76948 9.23917 9.76948V10.7027ZM6.43958 14.4355L5.69302 13.8755C5.58904 14.0142 5.52571 14.1791 5.51015 14.3517C5.49459 14.5243 5.52739 14.6978 5.6049 14.8528C5.6824 15.0078 5.80154 15.1382 5.94897 15.2293C6.09639 15.3204 6.26627 15.3687 6.43958 15.3687V14.4355ZM4.57318 11.6359H9.23917V9.76948H4.57318V11.6359ZM8.49261 10.1428L5.69302 13.8755L7.18613 14.9954L9.98573 11.2626L8.49261 10.1428ZM6.43958 15.3687H7.37277V13.5023H6.43958V15.3687ZM7.37277 17.2351H4.57318V19.1014H7.37277V17.2351ZM8.30597 16.3019C8.30597 16.5494 8.20765 16.7867 8.03264 16.9617C7.85764 17.1367 7.62027 17.2351 7.37277 17.2351V19.1014C8.11527 19.1014 8.82736 18.8065 9.35238 18.2815C9.87741 17.7564 10.1724 17.0444 10.1724 16.3019H8.30597ZM7.37277 15.3687C7.62027 15.3687 7.85764 15.467 8.03264 15.642C8.20765 15.817 8.30597 16.0544 8.30597 16.3019H10.1724C10.1724 15.5594 9.87741 14.8473 9.35238 14.3222C8.82736 13.7972 8.11527 13.5023 7.37277 13.5023V15.3687ZM15.7715 9.76948H14.8384V11.6359H15.7715V9.76948ZM12.0388 12.5691V14.4355H13.9052V12.5691H12.0388ZM12.0388 14.4355V16.3019H13.9052V14.4355H12.0388ZM14.8384 13.5023H12.972V15.3687H14.8384V13.5023ZM17.6379 16.3019C17.6379 15.5594 17.343 14.8473 16.818 14.3222C16.2929 13.7972 15.5808 13.5023 14.8384 13.5023V15.3687C15.0859 15.3687 15.3232 15.467 15.4982 15.642C15.6732 15.817 15.7715 16.0544 15.7715 16.3019H17.6379ZM14.8384 19.1014C15.5808 19.1014 16.2929 18.8065 16.818 18.2815C17.343 17.7564 17.6379 17.0444 17.6379 16.3019H15.7715C15.7715 16.5494 15.6732 16.7867 15.4982 16.9617C15.3232 17.1367 15.0859 17.2351 14.8384 17.2351V19.1014ZM14.8384 17.2351C14.5909 17.2351 14.3535 17.1367 14.1785 16.9617C14.0035 16.7867 13.9052 16.5494 13.9052 16.3019H12.0388C12.0388 17.0444 12.3337 17.7564 12.8587 18.2815C13.3838 18.8065 14.0959 19.1014 14.8384 19.1014V17.2351ZM14.8384 9.76948C14.0959 9.76948 13.3838 10.0644 12.8587 10.5895C12.3337 11.1145 12.0388 11.8266 12.0388 12.5691H13.9052C13.9052 12.3216 14.0035 12.0842 14.1785 11.9092C14.3535 11.7342 14.5909 11.6359 14.8384 11.6359V9.76948ZM23.2371 12.5691V16.3019H25.1035V12.5691H23.2371ZM21.3707 16.3019V12.5691H19.5043V16.3019H21.3707ZM22.3039 17.2351C22.0564 17.2351 21.8191 17.1367 21.6441 16.9617C21.4691 16.7867 21.3707 16.5494 21.3707 16.3019H19.5043C19.5043 17.0444 19.7993 17.7564 20.3243 18.2815C20.8493 18.8065 21.5614 19.1014 22.3039 19.1014V17.2351ZM23.2371 16.3019C23.2371 16.5494 23.1388 16.7867 22.9638 16.9617C22.7888 17.1367 22.5514 17.2351 22.3039 17.2351V19.1014C23.0464 19.1014 23.7585 18.8065 24.2835 18.2815C24.8086 17.7564 25.1035 17.0444 25.1035 16.3019H23.2371ZM22.3039 11.6359C22.5514 11.6359 22.7888 11.7342 22.9638 11.9092C23.1388 12.0842 23.2371 12.3216 23.2371 12.5691H25.1035C25.1035 11.8266 24.8086 11.1145 24.2835 10.5895C23.7585 10.0644 23.0464 9.76948 22.3039 9.76948V11.6359ZM22.3039 9.76948C21.5614 9.76948 20.8493 10.0644 20.3243 10.5895C19.7993 11.1145 19.5043 11.8266 19.5043 12.5691H21.3707C21.3707 12.3216 21.4691 12.0842 21.6441 11.9092C21.8191 11.7342 22.0564 11.6359 22.3039 11.6359V9.76948ZM14.8384 26.567C11.6209 26.567 8.53515 25.2889 6.26004 23.0138C3.98493 20.7387 2.70679 17.653 2.70679 14.4355H0.840393C0.840393 18.148 2.31517 21.7084 4.9403 24.3335C7.56543 26.9586 11.1259 28.4334 14.8384 28.4334V26.567ZM26.9699 14.4355C26.9699 16.0286 26.6561 17.6061 26.0465 19.078C25.4368 20.5499 24.5432 21.8873 23.4167 23.0138C22.2901 24.1403 20.9528 25.0339 19.4809 25.6436C18.009 26.2532 16.4315 26.567 14.8384 26.567V28.4334C18.5508 28.4334 22.1113 26.9586 24.7364 24.3335C27.3615 21.7084 28.8363 18.148 28.8363 14.4355H26.9699ZM14.8384 0.437508C11.1259 0.437508 7.56543 1.91229 4.9403 4.53741C2.31517 7.16254 0.840393 10.723 0.840393 14.4355H2.70679C2.70679 11.218 3.98493 8.13226 6.26004 5.85715C8.53515 3.58204 11.6209 2.3039 14.8384 2.3039V0.437508ZM26.0367 6.03669C26.2842 6.03669 26.5216 6.13501 26.6966 6.31002C26.8716 6.48503 26.9699 6.72239 26.9699 6.96989H28.8363C28.8363 6.22739 28.5414 5.5153 28.0163 4.99028C27.4913 4.46525 26.7792 4.1703 26.0367 4.1703V6.03669ZM26.0367 7.90308C25.7892 7.90308 25.5519 7.80476 25.3768 7.62976C25.2018 7.45475 25.1035 7.21739 25.1035 6.96989H23.2371C23.2371 7.71238 23.5321 8.42447 24.0571 8.9495C24.5821 9.47452 25.2942 9.76948 26.0367 9.76948V7.90308ZM25.1035 6.96989C25.1035 6.74032 25.1856 6.53128 25.3238 6.36704L23.8997 5.16135C23.4872 5.64848 23.2371 6.28119 23.2371 6.96989H25.1035ZM25.3238 6.36704C25.4113 6.26325 25.5204 6.17989 25.6436 6.12282C25.7668 6.06574 25.901 6.03635 26.0367 6.03669V4.1703C25.1782 4.1703 24.4111 4.55664 23.8997 5.16135L25.3238 6.36704ZM14.8384 2.3039C18.448 2.3039 21.6899 3.87914 23.9128 6.38384L25.3088 5.14455C23.9967 3.66288 22.3847 2.477 20.5796 1.6655C18.7745 0.854003 16.8175 0.435425 14.8384 0.437508V2.3039ZM25.7642 9.15357C26.5369 10.7512 26.9699 12.5411 26.9699 14.4355H28.8363C28.8363 12.2518 28.3361 10.1857 27.444 8.34169L25.7642 9.15357ZM26.9699 6.96989C26.9702 7.16801 26.9074 7.36108 26.7906 7.52113C26.6738 7.68119 26.5092 7.79993 26.3204 7.86016L26.8878 9.63696C27.4534 9.45647 27.947 9.10082 28.2973 8.6214C28.6475 8.14198 28.8363 7.56362 28.8363 6.96989H26.9699ZM26.3204 7.86016C26.2286 7.889 26.1329 7.90348 26.0367 7.90308V9.76948C26.3255 9.77008 26.6125 9.72414 26.8878 9.63696L26.3204 7.86016Z" fill="url(#paint0_linear_189_2888)"/>
<defs>
<linearGradient id="paint0_linear_189_2888" x1="-23" y1="14.4355" x2="64" y2="14.4355" gradientUnits="userSpaceOnUse">
<stop stop-color="#003ACC"/>
<stop offset="1" stop-color="#4EDDFF"/>
</linearGradient>
</defs>
</svg>
