<svg viewBox="0 0 379 72" fill="none" xmlns="http://www.w3.org/2000/svg">
<path d="M32 2L7.5 35.5L29 64.5H351.5L370.5 36.5L346 2H32Z" fill="white" fill-opacity="0.21"/>
<path opacity="0.45" d="M20.0005 39.0001L34.5005 60.0001" stroke="white" stroke-linecap="round"/>
<path opacity="0.25" d="M27.0005 39.0001L41.5005 60.0001" stroke="white" stroke-linecap="round"/>
<path opacity="0.15" d="M34.0005 39.0001L48.5005 60.0001" stroke="white" stroke-linecap="round"/>
<path opacity="0.1" d="M41.0005 39.0001L55.5005 60.0001" stroke="white" stroke-linecap="round"/>
<path opacity="0.05" d="M48.0005 39.0001L62.5005 60.0001" stroke="white" stroke-linecap="round"/>
<path opacity="0.45" d="M358.501 34.0001L344.001 13.0001" stroke="white" stroke-linecap="round"/>
<path opacity="0.25" d="M351.501 34.0001L337.001 13.0001" stroke="white" stroke-linecap="round"/>
<path opacity="0.15" d="M344.501 34.0001L330.001 13.0001" stroke="white" stroke-linecap="round"/>
<path opacity="0.1" d="M337.501 34.0001L323.001 13.0001" stroke="white" stroke-linecap="round"/>
<path opacity="0.05" d="M330.501 34.0001L316.001 13.0001" stroke="white" stroke-linecap="round"/>
<path fill-rule="evenodd" clip-rule="evenodd" d="M350.297 72.0001C352.751 72.0001 355.05 70.7998 356.452 68.7862L359.143 64.9218L378.662 36.8938C378.782 36.7204 378.781 36.4898 378.658 36.3177L357.246 6.29204L357.327 6.29204L355.705 4.13103L355.002 3.14548C354.751 2.79379 354.473 2.46757 354.171 2.1689C352.858 0.792394 351.031 2.80942e-05 349.105 2.79258e-05L32.6727 2.62427e-07L32.6575 0.0211032L29.2117 0.0211029C26.7695 0.0211027 24.4802 1.2102 23.0758 3.2082L0.20325 35.7485C0.0812409 35.9221 0.0820649 36.1537 0.205325 36.3265L23.4226 68.857C24.8303 70.8294 27.1041 72.0001 29.5273 72.0001L33.3478 72.0001L350.297 72.0001ZM31.9405 1.0211L29.2117 1.0211C27.0951 1.0211 25.1111 2.05165 23.894 3.78325L1.57492 35.536L7.19165 35.536L31.9405 1.0211ZM8.4942 36.5002L28.8756 64.1361L350.992 64.1361L370.215 36.611L348.593 6.29204L35.3725 6.29202L16.6859 33.4665C15.3799 35.3656 13.2228 36.5002 10.918 36.5002L8.4942 36.5002ZM349.821 6.29204L371.234 36.3177C371.357 36.49 371.358 36.7209 371.237 36.8943L352.212 64.1361L358.472 64.1361L377.64 36.6114L356.018 6.29204L349.821 6.29204ZM351.253 65.1361L357.775 65.1361L355.631 68.2147C354.416 69.9598 352.424 71.0001 350.297 71.0001L33.6106 71.0001L29.5742 65.1361L351.253 65.1361ZM28.2207 64.9329L32.3966 71.0001L29.5273 71.0001C27.4272 71.0001 25.4565 69.9855 24.2366 68.2761L1.58344 36.536L7.27808 36.536L28.2112 64.9196L28.2207 64.9329Z" fill="url(#paint0_linear_2_22)"/>
<defs>
<linearGradient id="paint0_linear_2_22" x1="378.751" y1="36.0001" x2="0.112308" y2="36.0001" gradientUnits="userSpaceOnUse">
<stop stop-color="#003ACC"/>
<stop offset="1" stop-color="#4EDDFF"/>
</linearGradient>
</defs>
</svg>
