<?xml version="1.0" encoding="UTF-8" standalone="no"?>
<svg
   class="svg-icon"
   style="width: 1em; height: 1em;vertical-align: middle;fill: currentColor;overflow: hidden;"
   viewBox="0 0 1024 1024"
   version="1.1"
   id="svg4"
   sodipodi:docname="cross-icon.svg"
   inkscape:version="1.2 (dc2aedaf03, 2022-05-15)"
   xmlns:inkscape="http://www.inkscape.org/namespaces/inkscape"
   xmlns:sodipodi="http://sodipodi.sourceforge.net/DTD/sodipodi-0.dtd"
   xmlns="http://www.w3.org/2000/svg"
   xmlns:svg="http://www.w3.org/2000/svg">
  <defs
     id="defs8" />
  <sodipodi:namedview
     id="namedview6"
     pagecolor="#ffffff"
     bordercolor="#666666"
     borderopacity="1.0"
     inkscape:showpageshadow="2"
     inkscape:pageopacity="0.0"
     inkscape:pagecheckerboard="0"
     inkscape:deskcolor="#d1d1d1"
     showgrid="false"
     inkscape:zoom="0.78515625"
     inkscape:cx="270.00995"
     inkscape:cy="341.97015"
     inkscape:window-width="1920"
     inkscape:window-height="991"
     inkscape:window-x="-9"
     inkscape:window-y="-9"
     inkscape:window-maximized="1"
     inkscape:current-layer="svg4" />
  <path
     d="M810.65984 170.65984q18.3296 0 30.49472 12.16512t12.16512 30.49472q0 18.00192-12.32896 30.33088l-268.67712 268.32896 268.67712 268.32896q12.32896 12.32896 12.32896 30.33088 0 18.3296-12.16512 30.49472t-30.49472 12.16512q-18.00192 0-30.33088-12.32896l-268.32896-268.67712-268.32896 268.67712q-12.32896 12.32896-30.33088 12.32896-18.3296 0-30.49472-12.16512t-12.16512-30.49472q0-18.00192 12.32896-30.33088l268.67712-268.32896-268.67712-268.32896q-12.32896-12.32896-12.32896-30.33088 0-18.3296 12.16512-30.49472t30.49472-12.16512q18.00192 0 30.33088 12.32896l268.32896 268.67712 268.32896-268.67712q12.32896-12.32896 30.33088-12.32896z"
     id="path2"
     style="fill:#ffffff" />
</svg>
