<svg width="34" height="25" viewBox="0 0 34 25" fill="none" xmlns="http://www.w3.org/2000/svg">
<path d="M28.208 2.21748C26.1576 1.26165 23.9376 0.567896 21.6251 0.167063C21.6048 0.166415 21.5847 0.17022 21.566 0.178211C21.5474 0.186201 21.5307 0.198184 21.5172 0.213313C21.2397 0.722063 20.9159 1.38498 20.7001 1.89373C18.2473 1.52373 15.7529 1.52373 13.3001 1.89373C13.0843 1.36956 12.7605 0.722063 12.4676 0.213313C12.4522 0.18248 12.4059 0.167063 12.3597 0.167063C10.0472 0.567896 7.8426 1.26165 5.77677 2.21748C5.76135 2.21748 5.74593 2.2329 5.73052 2.24831C1.53718 8.5229 0.380933 14.6279 0.951349 20.6712C0.951349 20.7021 0.966766 20.7329 0.997599 20.7483C3.7726 22.7833 6.43968 24.0166 9.07593 24.8337C9.12218 24.8491 9.16843 24.8337 9.18385 24.8029C9.80052 23.955 10.3555 23.0608 10.8334 22.1204C10.8643 22.0587 10.8334 21.9971 10.7718 21.9816C9.89302 21.6425 9.06052 21.2416 8.24343 20.7791C8.18177 20.7483 8.18177 20.6558 8.22802 20.6096C8.3976 20.4862 8.56718 20.3475 8.73677 20.2241C8.7676 20.1933 8.81385 20.1933 8.84468 20.2087C14.148 22.6291 19.8676 22.6291 25.1093 20.2087C25.1401 20.1933 25.1863 20.1933 25.2172 20.2241C25.3868 20.3629 25.5563 20.4862 25.7259 20.625C25.7876 20.6712 25.7876 20.7637 25.7105 20.7946C24.9088 21.2725 24.0609 21.6579 23.1822 21.9971C23.1205 22.0125 23.1051 22.0896 23.1205 22.1358C23.6138 23.0762 24.1689 23.9704 24.7701 24.8183C24.8164 24.8337 24.8626 24.8491 24.9088 24.8337C27.5605 24.0166 30.2276 22.7833 33.0026 20.7483C33.0334 20.7329 33.0488 20.7021 33.0488 20.6712C33.7272 13.6875 31.9234 7.62873 28.2697 2.24831C28.2543 2.2329 28.2388 2.21748 28.208 2.21748ZM11.6351 16.9866C10.0472 16.9866 8.72135 15.5221 8.72135 13.7183C8.72135 11.9146 10.0164 10.45 11.6351 10.45C13.2693 10.45 14.5643 11.93 14.5488 13.7183C14.5488 15.5221 13.2538 16.9866 11.6351 16.9866ZM22.3805 16.9866C20.7926 16.9866 19.4668 15.5221 19.4668 13.7183C19.4668 11.9146 20.7618 10.45 22.3805 10.45C24.0147 10.45 25.3097 11.93 25.2943 13.7183C25.2943 15.5221 24.0147 16.9866 22.3805 16.9866Z" fill="#828894"/>
</svg>
