<svg width="559" height="180" viewBox="0 0 559 180" fill="none" xmlns="http://www.w3.org/2000/svg">
<g filter="url(#filter0_bd_73_1459)">
<circle cx="502.167" cy="124.167" r="16.5" fill="#E2ECFF" fill-opacity="0.18" shape-rendering="crispEdges"/>
</g>
<g filter="url(#filter1_dd_73_1459)">
<circle cx="502.167" cy="124.167" r="7.5" fill="url(#paint0_linear_73_1459)"/>
</g>
<circle opacity="0.18" cx="502.167" cy="124.167" r="38" stroke="white"/>
<circle opacity="0.05" cx="502.667" cy="123.667" r="55.5" stroke="white"/>
<path fill-rule="evenodd" clip-rule="evenodd" d="M0.333008 2.66667C0.333008 4.13943 1.52692 5.33333 2.99967 5.33333C4.30154 5.33333 5.38551 4.40043 5.61954 3.16667H440.361L490.713 101.378C482.382 105.573 476.667 114.202 476.667 124.167C476.667 138.25 488.083 149.667 502.167 149.667C516.25 149.667 527.667 138.25 527.667 124.167C527.667 110.083 516.25 98.6667 502.167 98.6667C498.341 98.6667 494.712 99.5092 491.455 101.019L491.612 100.939L441.112 2.43855L440.972 2.16667H440.667H5.61954C5.38551 0.932903 4.30154 0 2.99967 0C1.52692 0 0.333008 1.19391 0.333008 2.66667ZM526.667 124.167C526.667 137.698 515.698 148.667 502.167 148.667C488.636 148.667 477.667 137.698 477.667 124.167C477.667 110.636 488.636 99.6667 502.167 99.6667C515.698 99.6667 526.667 110.636 526.667 124.167Z" fill="white" fill-opacity="0.25"/>
<defs>
<filter id="filter0_bd_73_1459" x="458.667" y="84.6667" width="87" height="87" filterUnits="userSpaceOnUse" color-interpolation-filters="sRGB">
<feFlood flood-opacity="0" result="BackgroundImageFix"/>
<feGaussianBlur in="BackgroundImageFix" stdDeviation="3"/>
<feComposite in2="SourceAlpha" operator="in" result="effect1_backgroundBlur_73_1459"/>
<feColorMatrix in="SourceAlpha" type="matrix" values="0 0 0 0 0 0 0 0 0 0 0 0 0 0 0 0 0 0 127 0" result="hardAlpha"/>
<feMorphology radius="3" operator="dilate" in="SourceAlpha" result="effect2_dropShadow_73_1459"/>
<feOffset dy="4"/>
<feGaussianBlur stdDeviation="12"/>
<feComposite in2="hardAlpha" operator="out"/>
<feColorMatrix type="matrix" values="0 0 0 0 0 0 0 0 0 0 0 0 0 0 0 0 0 0 0.16 0"/>
<feBlend mode="normal" in2="effect1_backgroundBlur_73_1459" result="effect2_dropShadow_73_1459"/>
<feBlend mode="normal" in="SourceGraphic" in2="effect2_dropShadow_73_1459" result="shape"/>
</filter>
<filter id="filter1_dd_73_1459" x="472.667" y="94.6667" width="59" height="59" filterUnits="userSpaceOnUse" color-interpolation-filters="sRGB">
<feFlood flood-opacity="0" result="BackgroundImageFix"/>
<feColorMatrix in="SourceAlpha" type="matrix" values="0 0 0 0 0 0 0 0 0 0 0 0 0 0 0 0 0 0 127 0" result="hardAlpha"/>
<feOffset/>
<feGaussianBlur stdDeviation="11"/>
<feComposite in2="hardAlpha" operator="out"/>
<feColorMatrix type="matrix" values="0 0 0 0 1 0 0 0 0 0.945098 0 0 0 0 0.592157 0 0 0 0.27 0"/>
<feBlend mode="normal" in2="BackgroundImageFix" result="effect1_dropShadow_73_1459"/>
<feColorMatrix in="SourceAlpha" type="matrix" values="0 0 0 0 0 0 0 0 0 0 0 0 0 0 0 0 0 0 127 0" result="hardAlpha"/>
<feOffset/>
<feGaussianBlur stdDeviation="4"/>
<feComposite in2="hardAlpha" operator="out"/>
<feColorMatrix type="matrix" values="0 0 0 0 0.976471 0 0 0 0 0.454902 0 0 0 0 0.243137 0 0 0 0.14 0"/>
<feBlend mode="normal" in2="effect1_dropShadow_73_1459" result="effect2_dropShadow_73_1459"/>
<feBlend mode="normal" in="SourceGraphic" in2="effect2_dropShadow_73_1459" result="shape"/>
</filter>
<linearGradient id="paint0_linear_73_1459" x1="488.491" y1="112.696" x2="516.138" y2="138.137" gradientUnits="userSpaceOnUse">
<stop stop-color="#FFF197"/>
<stop offset="1" stop-color="#FFAD73"/>
</linearGradient>
</defs>
</svg>
