<svg width="32" height="31" viewBox="0 0 32 31" fill="none" xmlns="http://www.w3.org/2000/svg">
<path d="M17.5844 0.0849047C18.7094 0.0805877 19.8344 0.0918944 20.9591 0.118821L21.2582 0.129613C21.6035 0.141946 21.9443 0.157363 22.3559 0.175863C23.9962 0.252946 25.1155 0.511947 26.0975 0.892738C27.115 1.28432 27.9722 1.81465 28.8293 2.67182C29.6131 3.44205 30.2197 4.37374 30.6069 5.40211C30.9877 6.38415 31.2467 7.50495 31.3238 9.14528C31.3423 9.55536 31.3577 9.89761 31.37 10.2429L31.3793 10.542C31.4066 11.6662 31.4185 12.7907 31.4147 13.9152L31.4163 15.0653V17.0849C31.4201 18.2099 31.4082 19.3349 31.3808 20.4596L31.3715 20.7587C31.3592 21.104 31.3438 21.4447 31.3253 21.8563C31.2482 23.4967 30.9861 24.6159 30.6069 25.5979C30.2209 26.6274 29.6142 27.5599 28.8293 28.3298C28.0584 29.1134 27.1263 29.72 26.0975 30.1073C25.1155 30.4881 23.9962 30.7471 22.3559 30.8242C21.9443 30.8427 21.6035 30.8581 21.2582 30.8704L20.9591 30.8797C19.8344 30.9071 18.7094 30.9189 17.5844 30.9152L16.4343 30.9167H14.4163C13.2913 30.9205 12.1663 30.9087 11.0416 30.8812L10.7425 30.872C10.3765 30.8587 10.0106 30.8433 9.64484 30.8257C8.0045 30.7487 6.88525 30.4866 5.90167 30.1073C4.87289 29.7209 3.94104 29.1142 3.17138 28.3298C2.38674 27.5594 1.7796 26.6271 1.3923 25.5979C1.0115 24.6159 0.752504 23.4967 0.675421 21.8563C0.658251 21.4905 0.642834 21.1246 0.629171 20.7587L0.621463 20.4596C0.59304 19.3349 0.580191 18.2099 0.582921 17.0849V13.9152C0.578618 12.7907 0.589925 11.6662 0.616838 10.542L0.627629 10.2429C0.639963 9.89761 0.655379 9.55536 0.673879 9.14528C0.750962 7.5034 1.00996 6.3857 1.39075 5.40211C1.77829 4.37324 2.38662 3.4418 3.17292 2.67336C3.94205 1.88827 4.87332 1.28058 5.90167 0.892738C6.88525 0.511947 8.00296 0.252946 9.64484 0.175863L10.7425 0.129613L11.0416 0.121905C12.1657 0.0934964 13.2902 0.0806478 14.4148 0.0833631L17.5844 0.0849047ZM15.9996 7.79324C14.9782 7.77879 13.9642 7.96748 13.0164 8.34834C12.0686 8.7292 11.206 9.29463 10.4786 10.0118C9.75128 10.7289 9.1737 11.5835 8.77948 12.5258C8.38525 13.4681 8.18224 14.4794 8.18224 15.5008C8.18224 16.5222 8.38525 17.5335 8.77948 18.4758C9.1737 19.4181 9.75128 20.2727 10.4786 20.9898C11.206 21.707 12.0686 22.2724 13.0164 22.6533C13.9642 23.0341 14.9782 23.2228 15.9996 23.2084C18.044 23.2084 20.0046 22.3962 21.4502 20.9506C22.8958 19.5051 23.7079 17.5444 23.7079 15.5C23.7079 13.4557 22.8958 11.495 21.4502 10.0494C20.0046 8.60382 18.044 7.79324 15.9996 7.79324ZM15.9996 10.8766C16.614 10.8653 17.2244 10.9765 17.7953 11.2037C18.3662 11.431 18.8861 11.7697 19.3246 12.2002C19.7631 12.6306 20.1115 13.1441 20.3493 13.7107C20.5871 14.2773 20.7097 14.8855 20.7098 15.5C20.7099 16.1145 20.5875 16.7228 20.3499 17.2895C20.1123 17.8561 19.7641 18.3697 19.3257 18.8003C18.8873 19.2309 18.3676 19.5698 17.7967 19.7973C17.2259 20.0247 16.6155 20.1361 16.0011 20.125C14.7745 20.125 13.5981 19.6378 12.7308 18.7704C11.8634 17.903 11.3761 16.7267 11.3761 15.5C11.3761 14.2734 11.8634 13.097 12.7308 12.2297C13.5981 11.3623 14.7745 10.875 16.0011 10.875L15.9996 10.8766ZM24.0933 5.48074C23.596 5.50064 23.1256 5.71222 22.7808 6.07115C22.4359 6.43008 22.2433 6.90853 22.2433 7.40628C22.2433 7.90403 22.4359 8.38248 22.7808 8.74141C23.1256 9.10034 23.596 9.31192 24.0933 9.33182C24.6044 9.33182 25.0946 9.12879 25.456 8.76739C25.8174 8.40599 26.0204 7.91583 26.0204 7.40474C26.0204 6.89364 25.8174 6.40348 25.456 6.04209C25.0946 5.68069 24.6044 5.47766 24.0933 5.47766V5.48074Z" fill="#828894"/>
</svg>
