<svg width="60" height="54" viewBox="0 0 60 54" fill="none" xmlns="http://www.w3.org/2000/svg">
<g filter="url(#filter0_dd_189_3286)">
<path d="M40 26C40.5523 26 41 26.4477 41 27C41 27.5523 40.5523 28 40 28L40 26ZM19.2929 27.7071C18.9024 27.3166 18.9024 26.6834 19.2929 26.2929L25.6569 19.9289C26.0474 19.5384 26.6805 19.5384 27.0711 19.9289C27.4616 20.3195 27.4616 20.9526 27.0711 21.3431L21.4142 27L27.0711 32.6569C27.4616 33.0474 27.4616 33.6805 27.0711 34.0711C26.6805 34.4616 26.0474 34.4616 25.6569 34.0711L19.2929 27.7071ZM40 28L20 28L20 26L40 26L40 28Z" fill="url(#paint0_linear_189_3286)"/>
</g>
<mask id="path-2-inside-1_189_3286" fill="white">
<path d="M47.0838 15.6159C47.4338 15.4138 47.5547 14.9655 47.3422 14.6216C44.6485 10.262 40.6512 6.85096 35.908 4.87834C30.9392 2.81191 25.4283 2.43887 20.2264 3.81683C15.0245 5.1948 10.421 8.24711 7.1268 12.5024C3.83262 16.7576 2.03108 21.9791 2.0004 27.3603C1.96971 32.7416 3.7116 37.9832 6.95704 42.2757C10.2025 46.5683 14.7709 49.6729 19.9568 51.1101C25.1426 52.5473 30.6574 52.2371 35.6494 50.2275C40.4148 48.3091 44.4507 44.9439 47.194 40.6152C47.4104 40.2738 47.2947 39.8241 46.9469 39.618V39.618C46.5992 39.4119 46.1512 39.5275 45.9342 39.8685C43.3553 43.9208 39.5699 47.0713 35.1028 48.8696C30.409 50.7592 25.2237 51.0508 20.3477 49.6995C15.4717 48.3482 11.1762 45.4291 8.12463 41.393C5.07309 37.3569 3.43527 32.4284 3.46412 27.3687C3.49296 22.3089 5.18688 17.3994 8.28424 13.3984C11.3816 9.39737 15.7101 6.52742 20.6012 5.23178C25.4924 3.93614 30.674 4.28689 35.3459 6.22986C39.7922 8.07902 43.5414 11.2724 46.074 15.3539C46.2871 15.6973 46.7338 15.818 47.0838 15.6159V15.6159Z"/>
</mask>
<path d="M47.0838 15.6159C47.4338 15.4138 47.5547 14.9655 47.3422 14.6216C44.6485 10.262 40.6512 6.85096 35.908 4.87834C30.9392 2.81191 25.4283 2.43887 20.2264 3.81683C15.0245 5.1948 10.421 8.24711 7.1268 12.5024C3.83262 16.7576 2.03108 21.9791 2.0004 27.3603C1.96971 32.7416 3.7116 37.9832 6.95704 42.2757C10.2025 46.5683 14.7709 49.6729 19.9568 51.1101C25.1426 52.5473 30.6574 52.2371 35.6494 50.2275C40.4148 48.3091 44.4507 44.9439 47.194 40.6152C47.4104 40.2738 47.2947 39.8241 46.9469 39.618V39.618C46.5992 39.4119 46.1512 39.5275 45.9342 39.8685C43.3553 43.9208 39.5699 47.0713 35.1028 48.8696C30.409 50.7592 25.2237 51.0508 20.3477 49.6995C15.4717 48.3482 11.1762 45.4291 8.12463 41.393C5.07309 37.3569 3.43527 32.4284 3.46412 27.3687C3.49296 22.3089 5.18688 17.3994 8.28424 13.3984C11.3816 9.39737 15.7101 6.52742 20.6012 5.23178C25.4924 3.93614 30.674 4.28689 35.3459 6.22986C39.7922 8.07902 43.5414 11.2724 46.074 15.3539C46.2871 15.6973 46.7338 15.818 47.0838 15.6159V15.6159Z" fill="white" stroke="url(#paint1_linear_189_3286)" stroke-width="2" mask="url(#path-2-inside-1_189_3286)"/>
<defs>
<filter id="filter0_dd_189_3286" x="0" y="0.635742" width="60" height="52.7285" filterUnits="userSpaceOnUse" color-interpolation-filters="sRGB">
<feFlood flood-opacity="0" result="BackgroundImageFix"/>
<feColorMatrix in="SourceAlpha" type="matrix" values="0 0 0 0 0 0 0 0 0 0 0 0 0 0 0 0 0 0 127 0" result="hardAlpha"/>
<feOffset/>
<feGaussianBlur stdDeviation="9.5"/>
<feComposite in2="hardAlpha" operator="out"/>
<feColorMatrix type="matrix" values="0 0 0 0 0 0 0 0 0 0.227451 0 0 0 0 0.8 0 0 0 1 0"/>
<feBlend mode="normal" in2="BackgroundImageFix" result="effect1_dropShadow_189_3286"/>
<feColorMatrix in="SourceAlpha" type="matrix" values="0 0 0 0 0 0 0 0 0 0 0 0 0 0 0 0 0 0 127 0" result="hardAlpha"/>
<feOffset/>
<feGaussianBlur stdDeviation="6.5"/>
<feComposite in2="hardAlpha" operator="out"/>
<feColorMatrix type="matrix" values="0 0 0 0 0.566667 0 0 0 0 0.689869 0 0 0 0 1 0 0 0 0.3 0"/>
<feBlend mode="normal" in2="effect1_dropShadow_189_3286" result="effect2_dropShadow_189_3286"/>
<feBlend mode="normal" in="SourceGraphic" in2="effect2_dropShadow_189_3286" result="shape"/>
</filter>
<linearGradient id="paint0_linear_189_3286" x1="40" y1="27.5" x2="20" y2="27.5" gradientUnits="userSpaceOnUse">
<stop stop-color="#003ACC"/>
<stop offset="1" stop-color="#4EDDFF"/>
</linearGradient>
<linearGradient id="paint1_linear_189_3286" x1="2" y1="27.5" x2="51" y2="27.5" gradientUnits="userSpaceOnUse">
<stop stop-color="#003ACC"/>
<stop offset="1" stop-color="#4EDDFF"/>
</linearGradient>
</defs>
</svg>
