<svg width="447" height="180" viewBox="0 0 447 180" fill="none" xmlns="http://www.w3.org/2000/svg">
<g filter="url(#filter0_bd_189_3117)">
<circle cx="16.5" cy="16.5" r="16.5" transform="matrix(1 0 0 -1 373.668 71.999)" fill="#E2ECFF" fill-opacity="0.18" shape-rendering="crispEdges"/>
</g>
<g filter="url(#filter1_dd_189_3117)">
<circle cx="7.5" cy="7.5" r="7.5" transform="matrix(1 0 0 -1 382.668 62.999)" fill="url(#paint0_linear_189_3117)"/>
</g>
<circle opacity="0.18" cx="38.5" cy="38.5" r="38" transform="matrix(1 0 0 -1 351.668 93.999)" stroke="white"/>
<circle opacity="0.05" cx="56" cy="56" r="55.5" transform="matrix(1 0 0 -1 334.668 111.999)" stroke="white"/>
<path fill-rule="evenodd" clip-rule="evenodd" d="M0 176.999C0 175.527 1.19391 174.333 2.66667 174.333C3.96853 174.333 5.0525 175.266 5.28653 176.499H129.917H328.362L378.714 78.2885C370.383 74.093 364.668 65.4636 364.668 55.4994C364.668 41.4161 376.084 29.9994 390.168 29.9994C404.251 29.9994 415.668 41.4161 415.668 55.4994C415.668 69.5826 404.251 80.9994 390.168 80.9994C386.342 80.9994 382.713 80.1569 379.456 78.6474L379.613 78.7275L329.113 177.227L328.973 177.499H328.668H129.917H5.28653C5.0525 178.733 3.96853 179.666 2.66667 179.666C1.19391 179.666 0 178.472 0 176.999ZM414.668 55.4994C414.668 41.9684 403.699 30.9994 390.168 30.9994C376.637 30.9994 365.668 41.9684 365.668 55.4994C365.668 69.0303 376.637 79.9994 390.168 79.9994C403.699 79.9994 414.668 69.0303 414.668 55.4994Z" fill="white" fill-opacity="0.25"/>
<defs>
<filter id="filter0_bd_189_3117" x="346.668" y="15.999" width="87" height="87" filterUnits="userSpaceOnUse" color-interpolation-filters="sRGB">
<feFlood flood-opacity="0" result="BackgroundImageFix"/>
<feGaussianBlur in="BackgroundImageFix" stdDeviation="3"/>
<feComposite in2="SourceAlpha" operator="in" result="effect1_backgroundBlur_189_3117"/>
<feColorMatrix in="SourceAlpha" type="matrix" values="0 0 0 0 0 0 0 0 0 0 0 0 0 0 0 0 0 0 127 0" result="hardAlpha"/>
<feMorphology radius="3" operator="dilate" in="SourceAlpha" result="effect2_dropShadow_189_3117"/>
<feOffset dy="4"/>
<feGaussianBlur stdDeviation="12"/>
<feComposite in2="hardAlpha" operator="out"/>
<feColorMatrix type="matrix" values="0 0 0 0 0 0 0 0 0 0 0 0 0 0 0 0 0 0 0.16 0"/>
<feBlend mode="normal" in2="effect1_backgroundBlur_189_3117" result="effect2_dropShadow_189_3117"/>
<feBlend mode="normal" in="SourceGraphic" in2="effect2_dropShadow_189_3117" result="shape"/>
</filter>
<filter id="filter1_dd_189_3117" x="360.668" y="25.999" width="59" height="59" filterUnits="userSpaceOnUse" color-interpolation-filters="sRGB">
<feFlood flood-opacity="0" result="BackgroundImageFix"/>
<feColorMatrix in="SourceAlpha" type="matrix" values="0 0 0 0 0 0 0 0 0 0 0 0 0 0 0 0 0 0 127 0" result="hardAlpha"/>
<feOffset/>
<feGaussianBlur stdDeviation="11"/>
<feComposite in2="hardAlpha" operator="out"/>
<feColorMatrix type="matrix" values="0 0 0 0 1 0 0 0 0 0.945098 0 0 0 0 0.592157 0 0 0 0.27 0"/>
<feBlend mode="normal" in2="BackgroundImageFix" result="effect1_dropShadow_189_3117"/>
<feColorMatrix in="SourceAlpha" type="matrix" values="0 0 0 0 0 0 0 0 0 0 0 0 0 0 0 0 0 0 127 0" result="hardAlpha"/>
<feOffset/>
<feGaussianBlur stdDeviation="4"/>
<feComposite in2="hardAlpha" operator="out"/>
<feColorMatrix type="matrix" values="0 0 0 0 0.976471 0 0 0 0 0.454902 0 0 0 0 0.243137 0 0 0 0.14 0"/>
<feBlend mode="normal" in2="effect1_dropShadow_189_3117" result="effect2_dropShadow_189_3117"/>
<feBlend mode="normal" in="SourceGraphic" in2="effect2_dropShadow_189_3117" result="shape"/>
</filter>
<linearGradient id="paint0_linear_189_3117" x1="-6.17647" y1="-3.97059" x2="21.4706" y2="21.4706" gradientUnits="userSpaceOnUse">
<stop stop-color="#FFF197"/>
<stop offset="1" stop-color="#FFAD73"/>
</linearGradient>
</defs>
</svg>
