<svg width="442" height="344" viewBox="0 0 442 344" fill="none" xmlns="http://www.w3.org/2000/svg">
<g filter="url(#filter0_bd_189_3135)">
<circle cx="16.5" cy="16.5" r="16.5" transform="matrix(0.965926 0.258819 0.258819 -0.965926 352.594 151.389)" fill="#E2ECFF" fill-opacity="0.18" shape-rendering="crispEdges"/>
</g>
<g filter="url(#filter1_dd_189_3135)">
<circle cx="7.5" cy="7.5" r="7.5" transform="matrix(0.965926 0.258819 0.258819 -0.965926 363.617 145.024)" fill="url(#paint0_linear_189_3135)"/>
</g>
<circle opacity="0.18" cx="38.5" cy="38.5" r="38" transform="matrix(0.965926 0.258819 0.258819 -0.965926 325.649 166.945)" stroke="white"/>
<circle opacity="0.05" cx="56" cy="56" r="55.5" transform="matrix(0.965926 0.258819 0.258819 -0.965926 304.57 179.932)" stroke="white"/>
<path fill-rule="evenodd" clip-rule="evenodd" d="M1.3562 240.471C1.73738 239.048 3.19961 238.204 4.62219 238.585C5.64282 238.859 6.36575 239.689 6.55202 240.661L89.9731 240.666L281.73 240.664L355.841 158.77C348.879 152.561 345.593 142.747 348.172 133.122C351.817 119.519 365.799 111.446 379.403 115.091C393.006 118.736 401.079 132.718 397.434 146.322C393.789 159.925 379.806 167.998 366.203 164.353C362.508 163.363 359.22 161.61 356.465 159.309L356.595 159.427L282.322 241.5L282.173 241.664L281.951 241.664L89.973 241.666L89.973 241.166L89.973 241.666L6.55147 241.661C6.5393 241.725 6.52477 241.788 6.5078 241.851C6.12663 243.274 4.66439 244.118 3.24182 243.737C1.81924 243.356 0.975022 241.894 1.3562 240.471ZM396.468 146.063C399.97 132.993 392.214 119.559 379.144 116.057C366.074 112.555 352.64 120.311 349.137 133.381C345.635 146.451 353.392 159.885 366.462 163.387C379.531 166.889 392.966 159.133 396.468 146.063Z" fill="white" fill-opacity="0.25"/>
<defs>
<filter id="filter0_bd_189_3135" x="329.298" y="100.218" width="87.0078" height="87.0078" filterUnits="userSpaceOnUse" color-interpolation-filters="sRGB">
<feFlood flood-opacity="0" result="BackgroundImageFix"/>
<feGaussianBlur in="BackgroundImageFix" stdDeviation="3"/>
<feComposite in2="SourceAlpha" operator="in" result="effect1_backgroundBlur_189_3135"/>
<feColorMatrix in="SourceAlpha" type="matrix" values="0 0 0 0 0 0 0 0 0 0 0 0 0 0 0 0 0 0 127 0" result="hardAlpha"/>
<feMorphology radius="3" operator="dilate" in="SourceAlpha" result="effect2_dropShadow_189_3135"/>
<feOffset dy="4"/>
<feGaussianBlur stdDeviation="12"/>
<feComposite in2="hardAlpha" operator="out"/>
<feColorMatrix type="matrix" values="0 0 0 0 0 0 0 0 0 0 0 0 0 0 0 0 0 0 0.16 0"/>
<feBlend mode="normal" in2="effect1_backgroundBlur_189_3135" result="effect2_dropShadow_189_3135"/>
<feBlend mode="normal" in="SourceGraphic" in2="effect2_dropShadow_189_3135" result="shape"/>
</filter>
<filter id="filter1_dd_189_3135" x="343.301" y="110.22" width="59.0039" height="59.0029" filterUnits="userSpaceOnUse" color-interpolation-filters="sRGB">
<feFlood flood-opacity="0" result="BackgroundImageFix"/>
<feColorMatrix in="SourceAlpha" type="matrix" values="0 0 0 0 0 0 0 0 0 0 0 0 0 0 0 0 0 0 127 0" result="hardAlpha"/>
<feOffset/>
<feGaussianBlur stdDeviation="11"/>
<feComposite in2="hardAlpha" operator="out"/>
<feColorMatrix type="matrix" values="0 0 0 0 1 0 0 0 0 0.945098 0 0 0 0 0.592157 0 0 0 0.27 0"/>
<feBlend mode="normal" in2="BackgroundImageFix" result="effect1_dropShadow_189_3135"/>
<feColorMatrix in="SourceAlpha" type="matrix" values="0 0 0 0 0 0 0 0 0 0 0 0 0 0 0 0 0 0 127 0" result="hardAlpha"/>
<feOffset/>
<feGaussianBlur stdDeviation="4"/>
<feComposite in2="hardAlpha" operator="out"/>
<feColorMatrix type="matrix" values="0 0 0 0 0.976471 0 0 0 0 0.454902 0 0 0 0 0.243137 0 0 0 0.14 0"/>
<feBlend mode="normal" in2="effect1_dropShadow_189_3135" result="effect2_dropShadow_189_3135"/>
<feBlend mode="normal" in="SourceGraphic" in2="effect2_dropShadow_189_3135" result="shape"/>
</filter>
<linearGradient id="paint0_linear_189_3135" x1="-6.17647" y1="-3.97059" x2="21.4706" y2="21.4706" gradientUnits="userSpaceOnUse">
<stop stop-color="#FFF197"/>
<stop offset="1" stop-color="#FFAD73"/>
</linearGradient>
</defs>
</svg>
