<svg width="336" height="180" viewBox="0 0 336 180" fill="none" xmlns="http://www.w3.org/2000/svg">
<g filter="url(#filter0_bd_83_1711)">
<circle cx="16.5" cy="16.5" r="16.5" transform="matrix(1 0 0 -1 262.833 72)" fill="#E2ECFF" fill-opacity="0.18" shape-rendering="crispEdges"/>
</g>
<g filter="url(#filter1_dd_83_1711)">
<circle cx="7.5" cy="7.5" r="7.5" transform="matrix(1 0 0 -1 271.833 63)" fill="url(#paint0_linear_83_1711)"/>
</g>
<circle opacity="0.18" cx="38.5" cy="38.5" r="38" transform="matrix(1 0 0 -1 240.833 94)" stroke="white"/>
<circle opacity="0.05" cx="56" cy="56" r="55.5" transform="matrix(1 0 0 -1 223.833 112)" stroke="white"/>
<path fill-rule="evenodd" clip-rule="evenodd" d="M0 177C0 175.527 1.19391 174.333 2.66667 174.333C3.96853 174.333 5.0525 175.266 5.28653 176.5H217.528L267.88 78.2889C259.549 74.0935 253.834 65.4641 253.834 55.4998C253.834 41.4166 265.25 29.9998 279.334 29.9998C293.417 29.9998 304.834 41.4166 304.834 55.4998C304.834 69.5831 293.417 80.9998 279.334 80.9998C275.508 80.9998 271.879 80.1573 268.622 78.6478L268.779 78.728L218.279 177.228L218.139 177.5H217.834H5.28653C5.0525 178.734 3.96853 179.667 2.66667 179.667C1.19391 179.667 0 178.473 0 177ZM303.834 55.4998C303.834 41.9689 292.865 30.9998 279.334 30.9998C265.803 30.9998 254.834 41.9689 254.834 55.4998C254.834 69.0308 265.803 79.9998 279.334 79.9998C292.865 79.9998 303.834 69.0308 303.834 55.4998Z" fill="white" fill-opacity="0.25"/>
<defs>
<filter id="filter0_bd_83_1711" x="235.833" y="16" width="87" height="87" filterUnits="userSpaceOnUse" color-interpolation-filters="sRGB">
<feFlood flood-opacity="0" result="BackgroundImageFix"/>
<feGaussianBlur in="BackgroundImageFix" stdDeviation="3"/>
<feComposite in2="SourceAlpha" operator="in" result="effect1_backgroundBlur_83_1711"/>
<feColorMatrix in="SourceAlpha" type="matrix" values="0 0 0 0 0 0 0 0 0 0 0 0 0 0 0 0 0 0 127 0" result="hardAlpha"/>
<feMorphology radius="3" operator="dilate" in="SourceAlpha" result="effect2_dropShadow_83_1711"/>
<feOffset dy="4"/>
<feGaussianBlur stdDeviation="12"/>
<feComposite in2="hardAlpha" operator="out"/>
<feColorMatrix type="matrix" values="0 0 0 0 0 0 0 0 0 0 0 0 0 0 0 0 0 0 0.16 0"/>
<feBlend mode="normal" in2="effect1_backgroundBlur_83_1711" result="effect2_dropShadow_83_1711"/>
<feBlend mode="normal" in="SourceGraphic" in2="effect2_dropShadow_83_1711" result="shape"/>
</filter>
<filter id="filter1_dd_83_1711" x="249.833" y="26" width="59" height="59" filterUnits="userSpaceOnUse" color-interpolation-filters="sRGB">
<feFlood flood-opacity="0" result="BackgroundImageFix"/>
<feColorMatrix in="SourceAlpha" type="matrix" values="0 0 0 0 0 0 0 0 0 0 0 0 0 0 0 0 0 0 127 0" result="hardAlpha"/>
<feOffset/>
<feGaussianBlur stdDeviation="11"/>
<feComposite in2="hardAlpha" operator="out"/>
<feColorMatrix type="matrix" values="0 0 0 0 1 0 0 0 0 0.945098 0 0 0 0 0.592157 0 0 0 0.27 0"/>
<feBlend mode="normal" in2="BackgroundImageFix" result="effect1_dropShadow_83_1711"/>
<feColorMatrix in="SourceAlpha" type="matrix" values="0 0 0 0 0 0 0 0 0 0 0 0 0 0 0 0 0 0 127 0" result="hardAlpha"/>
<feOffset/>
<feGaussianBlur stdDeviation="4"/>
<feComposite in2="hardAlpha" operator="out"/>
<feColorMatrix type="matrix" values="0 0 0 0 0.976471 0 0 0 0 0.454902 0 0 0 0 0.243137 0 0 0 0.14 0"/>
<feBlend mode="normal" in2="effect1_dropShadow_83_1711" result="effect2_dropShadow_83_1711"/>
<feBlend mode="normal" in="SourceGraphic" in2="effect2_dropShadow_83_1711" result="shape"/>
</filter>
<linearGradient id="paint0_linear_83_1711" x1="-6.17647" y1="-3.97059" x2="21.4706" y2="21.4706" gradientUnits="userSpaceOnUse">
<stop stop-color="#FFF197"/>
<stop offset="1" stop-color="#FFAD73"/>
</linearGradient>
</defs>
</svg>
