<svg width="535" height="72" viewBox="0 0 535 72" fill="none" xmlns="http://www.w3.org/2000/svg">
<path opacity="0.45" d="M20.6855 39L35.1855 60" stroke="white" stroke-linecap="round"/>
<path opacity="0.25" d="M27.6855 39L42.1855 60" stroke="white" stroke-linecap="round"/>
<path opacity="0.15" d="M34.6855 39L49.1855 60" stroke="white" stroke-linecap="round"/>
<path opacity="0.1" d="M41.6855 39L56.1855 60" stroke="white" stroke-linecap="round"/>
<path opacity="0.05" d="M48.6855 39L63.1855 60" stroke="white" stroke-linecap="round"/>
<path fill-rule="evenodd" clip-rule="evenodd" d="M34.0323 72L509.404 72L509.665 72L509.815 71.7857L514.595 64.9217L534.113 36.8936L534.314 36.6045L534.11 36.3176L508.36 0.209684L508.21 -2.2821e-06L507.953 -2.30461e-06L500.528 -2.95369e-06L500.46 -2.95968e-06L500.46 -0.000140289L33.3576 -0.000211642L33.3424 0.0209523L26.2603 0.0209517L26.0006 0.0209517L25.8512 0.23343L0.888126 35.7483L0.684451 36.038L0.890201 36.3263L26.2008 71.7904L26.3503 72L26.6078 72L34.0323 72ZM32.6253 1.02095L26.52 1.02095L2.25977 35.5358L7.87653 35.5358L32.6253 1.02095ZM9.17896 36.5L29.5601 64.1359L506.444 64.136L525.666 36.6109L504.045 6.29188L36.0574 6.29181L15.2847 36.5L9.17896 36.5ZM513.923 64.136L507.664 64.136L526.688 36.8942L526.89 36.6049L526.685 36.3176L501.499 0.999997L507.695 0.999998L533.091 36.6113L513.923 64.136ZM506.704 65.136L513.227 65.136L509.143 71L34.2951 71L30.2588 65.1359L506.704 65.136ZM28.9052 64.9327L33.0811 71L26.8652 71L2.26831 36.5358L7.96289 36.5358L28.8957 64.9194L28.9052 64.9327Z" fill="url(#paint0_linear_189_3389)"/>
<defs>
<linearGradient id="paint0_linear_189_3389" x1="534.314" y1="35.9999" x2="0.684512" y2="35.9999" gradientUnits="userSpaceOnUse">
<stop stop-color="#003ACC"/>
<stop offset="1" stop-color="#4EDDFF"/>
</linearGradient>
</defs>
</svg>
