<svg width="25" height="25" viewBox="0 0 25 25" fill="none" xmlns="http://www.w3.org/2000/svg">
<path d="M12.4998 0.500002C9.70186 0.498228 6.99124 1.47422 4.83663 3.25921C2.68202 5.04421 1.21889 7.52599 0.700203 10.2755C0.181522 13.0249 0.639905 15.8692 1.9961 18.3165C3.35229 20.7638 5.52102 22.6603 8.12732 23.678C8.02232 22.7285 7.92632 21.269 8.16782 20.2325C8.38682 19.295 9.57482 14.267 9.57482 14.267C9.57482 14.267 9.21632 13.5485 9.21632 12.4865C9.21632 10.817 10.1838 9.572 11.3883 9.572C12.4113 9.572 12.9063 10.34 12.9063 11.2625C12.9063 12.2915 12.2508 13.8305 11.9118 15.257C11.6298 16.451 12.5118 17.426 13.6893 17.426C15.8223 17.426 17.4618 15.176 17.4618 11.93C17.4618 9.0575 15.3963 7.049 12.4488 7.049C9.03482 7.049 7.03082 9.6095 7.03082 12.2555C7.03082 13.2875 7.42832 14.393 7.92332 14.9945C7.96595 15.0398 7.99609 15.0955 8.01081 15.1559C8.02554 15.2164 8.02433 15.2796 8.00732 15.3395C7.91582 15.7175 7.71332 16.5335 7.67432 16.7C7.62182 16.919 7.50032 16.9655 7.27232 16.8605C5.77232 16.163 4.83632 13.9715 4.83632 12.2105C4.83632 8.426 7.58732 4.9505 12.7653 4.9505C16.9278 4.9505 20.1633 7.916 20.1633 11.8805C20.1633 16.016 17.5548 19.3445 13.9368 19.3445C12.7203 19.3445 11.5773 18.713 11.1858 17.966L10.4388 20.819C10.1673 21.8615 9.43532 23.168 8.94632 23.9645C10.5963 24.4747 12.3369 24.6227 14.0493 24.3984C15.7617 24.1741 17.4055 23.5829 18.8685 22.6651C20.3314 21.7472 21.579 20.5244 22.526 19.0802C23.4731 17.636 24.0972 16.0044 24.3558 14.2968C24.6144 12.5893 24.5013 10.846 24.0244 9.18613C23.5475 7.52626 22.7179 5.9889 21.5923 4.67906C20.4667 3.36921 19.0717 2.31776 17.5025 1.59652C15.9332 0.875287 14.2268 0.501263 12.4998 0.500002Z" fill="#828894"/>
</svg>
