<?xml version="1.0" encoding="UTF-8" standalone="no"?>
<svg
   width="361"
   height="365.65671"
   viewBox="0 0 361 365.65671"
   fill="none"
   version="1.1"
   id="svg57"
   sodipodi:docname="popup-mobile.svg"
   inkscape:version="1.2 (dc2aedaf03, 2022-05-15)"
   xmlns:inkscape="http://www.inkscape.org/namespaces/inkscape"
   xmlns:sodipodi="http://sodipodi.sourceforge.net/DTD/sodipodi-0.dtd"
   xmlns="http://www.w3.org/2000/svg"
   xmlns:svg="http://www.w3.org/2000/svg">
  <defs
     id="defs6" />
  <sodipodi:namedview
     id="namedview59"
     pagecolor="#ffffff"
     bordercolor="#666666"
     borderopacity="1.0"
     inkscape:showpageshadow="2"
     inkscape:pageopacity="0.0"
     inkscape:pagecheckerboard="0"
     inkscape:deskcolor="#d1d1d1"
     showgrid="false"
     inkscape:zoom="1.6047904"
     inkscape:cx="155.16045"
     inkscape:cy="181.64366"
     inkscape:window-width="1920"
     inkscape:window-height="991"
     inkscape:window-x="-9"
     inkscape:window-y="-9"
     inkscape:window-maximized="1"
     inkscape:current-layer="svg57" />
  <g
     filter="url(#filter0_bddd_184_1637)"
     id="g4"
     transform="matrix(1,0,0,0.87477683,-20,-17.495537)">
    <path
       fill-rule="evenodd"
       clip-rule="evenodd"
       d="M 381,41 C 381,29.402 371.598,20 360,20 H 41 C 29.402,20 20,29.402 20,41 v 376 c 0,11.598 9.402,21 21,21 h 5 c 11.598,0 20.5685,-9.941 26.0187,-20.178 C 79.2474,404.244 93.5442,395 110,395 c 16.456,0 30.753,9.244 37.981,22.822 C 153.431,428.059 162.402,438 174,438 h 186 c 11.598,0 21,-9.402 21,-21 z"
       fill="#101724"
       fill-opacity="0.49"
       shape-rendering="crispEdges"
       id="path2"
       style="fill:#101724;fill-opacity:0.75" />
  </g>
</svg>
