<svg width="60" height="54" viewBox="0 0 60 54" fill="none" xmlns="http://www.w3.org/2000/svg">
<g filter="url(#filter0_dd_189_3286)">
<path d="M20 26C19.4477 26 19 26.4477 19 27C19 27.5523 19.4477 28 20 28L20 26ZM40.7071 27.7071C41.0976 27.3166 41.0976 26.6834 40.7071 26.2929L34.3431 19.9289C33.9526 19.5384 33.3195 19.5384 32.9289 19.9289C32.5384 20.3195 32.5384 20.9526 32.9289 21.3431L38.5858 27L32.9289 32.6569C32.5384 33.0474 32.5384 33.6805 32.9289 34.0711C33.3195 34.4616 33.9526 34.4616 34.3431 34.0711L40.7071 27.7071ZM20 28L40 28L40 26L20 26L20 28Z" fill="url(#paint0_linear_189_3286)"/>
</g>
<mask id="path-2-inside-1_189_3286" fill="white">
<path d="M12.9162 15.6159C12.5662 15.4138 12.4453 14.9655 12.6578 14.6216C15.3515 10.262 19.3488 6.85096 24.092 4.87834C29.0608 2.81191 34.5717 2.43887 39.7736 3.81683C44.9755 5.1948 49.579 8.24711 52.8732 12.5024C56.1674 16.7576 57.9689 21.9791 57.9996 27.3603C58.0303 32.7416 56.2884 37.9832 53.043 42.2757C49.7975 46.5683 45.2291 49.6729 40.0432 51.1101C34.8574 52.5473 29.3426 52.2371 24.3506 50.2275C19.5852 48.3091 15.5493 44.9439 12.806 40.6152C12.5896 40.2738 12.7053 39.8241 13.0531 39.618V39.618C13.4008 39.4119 13.8488 39.5275 14.0658 39.8685C16.6447 43.9208 20.4301 47.0713 24.8972 48.8696C29.591 50.7592 34.7763 51.0508 39.6523 49.6995C44.5283 48.3482 48.8238 45.4291 51.8754 41.393C54.9269 37.3569 56.5647 32.4284 56.5359 27.3687C56.507 22.3089 54.8131 17.3994 51.7158 13.3984C48.6184 9.39737 44.2899 6.52742 39.3988 5.23178C34.5076 3.93614 29.326 4.28689 24.6541 6.22986C20.2078 8.07902 16.4586 11.2724 13.926 15.3539C13.7129 15.6973 13.2662 15.818 12.9162 15.6159V15.6159Z"/>
</mask>
<path d="M12.9162 15.6159C12.5662 15.4138 12.4453 14.9655 12.6578 14.6216C15.3515 10.262 19.3488 6.85096 24.092 4.87834C29.0608 2.81191 34.5717 2.43887 39.7736 3.81683C44.9755 5.1948 49.579 8.24711 52.8732 12.5024C56.1674 16.7576 57.9689 21.9791 57.9996 27.3603C58.0303 32.7416 56.2884 37.9832 53.043 42.2757C49.7975 46.5683 45.2291 49.6729 40.0432 51.1101C34.8574 52.5473 29.3426 52.2371 24.3506 50.2275C19.5852 48.3091 15.5493 44.9439 12.806 40.6152C12.5896 40.2738 12.7053 39.8241 13.0531 39.618V39.618C13.4008 39.4119 13.8488 39.5275 14.0658 39.8685C16.6447 43.9208 20.4301 47.0713 24.8972 48.8696C29.591 50.7592 34.7763 51.0508 39.6523 49.6995C44.5283 48.3482 48.8238 45.4291 51.8754 41.393C54.9269 37.3569 56.5647 32.4284 56.5359 27.3687C56.507 22.3089 54.8131 17.3994 51.7158 13.3984C48.6184 9.39737 44.2899 6.52742 39.3988 5.23178C34.5076 3.93614 29.326 4.28689 24.6541 6.22986C20.2078 8.07902 16.4586 11.2724 13.926 15.3539C13.7129 15.6973 13.2662 15.818 12.9162 15.6159V15.6159Z" fill="white" stroke="url(#paint1_linear_189_3286)" stroke-width="2" mask="url(#path-2-inside-1_189_3286)"/>
<defs>
<filter id="filter0_dd_189_3286" x="0" y="0.635742" width="60" height="52.7285" filterUnits="userSpaceOnUse" color-interpolation-filters="sRGB">
<feFlood flood-opacity="0" result="BackgroundImageFix"/>
<feColorMatrix in="SourceAlpha" type="matrix" values="0 0 0 0 0 0 0 0 0 0 0 0 0 0 0 0 0 0 127 0" result="hardAlpha"/>
<feOffset/>
<feGaussianBlur stdDeviation="9.5"/>
<feComposite in2="hardAlpha" operator="out"/>
<feColorMatrix type="matrix" values="0 0 0 0 0 0 0 0 0 0.227451 0 0 0 0 0.8 0 0 0 1 0"/>
<feBlend mode="normal" in2="BackgroundImageFix" result="effect1_dropShadow_189_3286"/>
<feColorMatrix in="SourceAlpha" type="matrix" values="0 0 0 0 0 0 0 0 0 0 0 0 0 0 0 0 0 0 127 0" result="hardAlpha"/>
<feOffset/>
<feGaussianBlur stdDeviation="6.5"/>
<feComposite in2="hardAlpha" operator="out"/>
<feColorMatrix type="matrix" values="0 0 0 0 0.566667 0 0 0 0 0.689869 0 0 0 0 1 0 0 0 0.3 0"/>
<feBlend mode="normal" in2="effect1_dropShadow_189_3286" result="effect2_dropShadow_189_3286"/>
<feBlend mode="normal" in="SourceGraphic" in2="effect2_dropShadow_189_3286" result="shape"/>
</filter>
<linearGradient id="paint0_linear_189_3286" x1="20" y1="27.5" x2="40" y2="27.5" gradientUnits="userSpaceOnUse">
<stop stop-color="#003ACC"/>
<stop offset="1" stop-color="#4EDDFF"/>
</linearGradient>
<linearGradient id="paint1_linear_189_3286" x1="58" y1="27.5" x2="9" y2="27.5" gradientUnits="userSpaceOnUse">
<stop stop-color="#003ACC"/>
<stop offset="1" stop-color="#4EDDFF"/>
</linearGradient>
</defs>
</svg>
