<svg xmlns="http://www.w3.org/2000/svg" xmlns:xlink="http://www.w3.org/1999/xlink" width="18.092" height="18.096" viewBox="0 0 18.092 18.096">
  <defs>
    <clipPath id="clip-path">
      <rect id="사각형_761" data-name="사각형 761" width="18.092" height="18.095" fill="#fff"/>
    </clipPath>
  </defs>
  <g id="그룹_113" data-name="그룹 113" clip-path="url(#clip-path)">
    <path id="패스_68" data-name="패스 68" d="M191.068.65a.647.647,0,0,0-.362-.582.629.629,0,0,0-.685.078L184.3,4.707l6.772,6.772Z" transform="translate(-176.853)" fill="#fff"/>
    <path id="패스_69" data-name="패스 69" d="M17.9,17.056,1.1.256a.646.646,0,0,0-.914.914L4.255,5.237H3.876A1.313,1.313,0,0,0,2.584,6.529V11.7a1.3,1.3,0,0,0,1.292,1.29h3l6.293,5.027a.659.659,0,0,0,.4.142.756.756,0,0,0,.284-.065.647.647,0,0,0,.362-.582V15.2l2.773,2.773a.647.647,0,1,0,.915-.914" transform="translate(0 -0.064)" fill="#fff"/>
  </g>
<style xmlns="" type="text/css" id="igtranslator-color"/></svg>