<svg width="32" height="27" viewBox="0 0 32 27" fill="none" xmlns="http://www.w3.org/2000/svg">
<path d="M31.4163 3.94175C30.2575 4.44448 29.032 4.77681 27.778 4.92841C29.101 4.13803 30.0925 2.89462 30.5684 1.42883C29.3252 2.16893 27.9642 2.69037 26.5447 2.9705C25.5958 1.94154 24.3323 1.25662 22.9523 1.02314C21.5723 0.789664 20.1538 1.02084 18.9193 1.68041C17.6848 2.33999 16.7041 3.39065 16.1311 4.66762C15.5581 5.94459 15.4251 7.37564 15.753 8.73633C13.2392 8.60918 10.7803 7.95463 8.53593 6.8152C6.2916 5.67577 4.31206 4.07694 2.72592 2.12258C2.1696 3.09409 1.87727 4.19431 1.87801 5.31383C1.87603 6.3535 2.13118 7.37753 2.62071 8.29474C3.11025 9.21195 3.81899 9.99388 4.68384 10.5709C3.67864 10.5436 2.69491 10.2738 1.81634 9.78466V9.86175C1.82388 11.3185 2.33433 12.7278 3.26137 13.8515C4.1884 14.9752 5.47511 15.7442 6.90384 16.0284C6.35386 16.1958 5.78286 16.284 5.20801 16.2905C4.81009 16.2858 4.41316 16.2498 4.02092 16.1826C4.42779 17.4357 5.21513 18.5308 6.27342 19.3155C7.3317 20.1002 8.60827 20.5356 9.92551 20.5609C7.7012 22.3111 4.955 23.2663 2.12467 23.2742C1.60935 23.2759 1.09443 23.245 0.583008 23.1817C3.47275 25.0476 6.84034 26.038 10.2801 26.0338C12.6538 26.0585 15.0086 25.6099 17.207 24.7143C19.4054 23.8187 21.4033 22.494 23.0839 20.8176C24.7646 19.1412 26.0945 17.1467 26.9957 14.9506C27.8969 12.7546 28.3516 10.4009 28.333 8.02716V7.21008C29.5427 6.30791 30.5861 5.20194 31.4163 3.94175Z" fill="#828894"/>
</svg>
